PathFileType	4	(X/Y/Z)	S1_rest_med_right.trc
DataRate	CameraRate	NumFrames	NumMarkers	Units	OrigDataRate	OrigDataStartFrame	OrigNumFrames
250.00	250.00	13	18	mm	250.00	12322	24643
Frame#	Time	c7	r_should	l_should	clavicle	r_upa	r_elb_l	r_elb_m	r_low	r_wri_l	r_wri_m	r_met	l_upa	l_elb_l	l_elb_m	l_low	l_wri_l	l_wri_m	l_met
	X1	Y1	Z1	X2	Y2	Z2	X3	Y3	Z3	X4	Y4	Z4	X5	Y5	Z5	X6	Y6	Z6	X7	Y7	Z7	X8	Y8	Z8	X9	Y9	Z9	X10	Y10	Z10	X11	Y11	Z11	X12	Y12	Z12	X13	Y13	Z13	X14	Y14	Z14	X15	Y15	Z15	X16	Y16	Z16	X17	Y17	Z17	X18	Y18	Z18
12322	49.28400	387.64471	1415.09509	69.21782	429.02884	1359.93677	239.14778	457.21375	1365.12610	-121.80733	539.44183	1310.10193	63.58297	495.98465	1166.62268	289.76245	527.42694	1125.61389	298.77811	550.14282	1068.97656	203.59227	630.12109	1160.79272	258.57266	630.15015	1266.58411	276.91721	652.44794	1253.80188	205.85713	688.96271	1300.96545	301.27682	461.97574	1150.93164	-181.84795	474.08319	1069.91748	-195.66457	397.78705	1036.51050	-134.80695	468.87585	923.96997	-206.29736	552.17041	859.01678	-144.21428	507.31635	828.95276	-196.17299	598.21277	790.51343	-155.80641
12323	49.28800	387.57089	1415.06433	69.18571	428.92374	1360.06873	238.97797	457.14871	1365.12268	-121.84401	539.41376	1310.13831	63.54190	496.27591	1166.73560	289.68350	527.74261	1125.80823	298.69870	550.58337	1069.07690	203.56177	630.26331	1161.29468	258.36862	630.11121	1266.99927	276.66162	652.31604	1254.36206	205.63689	688.53632	1301.78381	301.10989	462.02362	1150.91724	-181.84694	474.10376	1069.97363	-195.76634	397.89273	1036.46741	-134.79361	469.05978	923.95520	-206.27396	552.39294	859.08197	-144.18300	507.56155	828.97223	-196.12865	598.47363	790.58698	-155.76932
12324	49.29200	387.49780	1415.03027	69.15474	428.75009	1360.25806	238.72093	457.07486	1365.12427	-121.88193	539.38495	1310.17834	63.51133	496.56143	1166.84290	289.60086	528.05170	1125.99512	298.61243	550.97583	1069.25964	203.43909	630.43030	1161.79822	258.18301	630.33722	1267.28967	276.39145	652.19476	1254.90320	205.42616	688.10370	1302.56506	300.90701	462.06409	1150.90015	-181.84909	474.06934	1070.08337	-195.96675	397.98630	1036.42078	-134.78383	469.23309	923.94519	-206.24602	552.60669	859.13837	-144.15584	507.79736	828.98889	-196.07669	598.73553	790.66943	-155.73708
12325	49.29600	387.42804	1414.99915	69.12819	428.68900	1360.33203	238.58542	456.99817	1365.12378	-121.91924	539.35828	1310.22241	63.47527	496.84122	1166.94128	289.51575	528.36298	1126.17542	298.51871	551.36163	1069.44617	203.32152	630.60229	1162.29260	258.01404	630.17279	1267.76465	276.16943	652.08759	1255.44482	205.22316	687.67847	1303.34119	300.71375	462.46158	1151.05383	-182.04427	474.22235	1070.01428	-195.83737	398.07370	1036.37720	-134.76346	469.39651	923.93457	-206.22331	552.81842	859.19244	-144.13106	508.02362	828.99756	-196.03543	598.99860	790.74927	-155.70522
12326	49.30000	387.34830	1414.97144	69.09727	428.65753	1360.37012	238.46216	456.92813	1365.12415	-121.95679	539.33179	1310.26917	63.43099	497.13800	1167.05298	289.41937	528.67761	1126.35315	298.42218	551.77063	1069.67981	203.20433	630.71667	1162.75977	257.83740	629.93079	1268.27185	275.94955	651.99109	1255.97974	205.02815	687.25378	1304.14661	300.52353	463.28561	1151.42847	-182.48064	474.10901	1070.19482	-196.18401	398.16519	1036.33423	-134.74023	469.56055	923.91913	-206.19496	553.03076	859.24628	-144.10765	508.23688	829.00763	-195.99950	599.25635	790.82281	-155.67749
12327	49.30400	387.26398	1414.93713	69.05965	428.62720	1360.40479	238.34366	456.85275	1365.11975	-121.99659	539.30402	1310.30994	63.38971	497.43915	1167.17297	289.34448	528.97839	1126.51465	298.32922	552.17017	1069.91943	203.06886	630.85437	1163.24377	257.69165	629.66608	1268.78064	275.72745	651.90991	1256.48694	204.86153	686.86865	1304.91187	300.38074	463.44434	1151.53784	-182.60417	474.23962	1070.14050	-196.09277	398.26456	1036.28882	-134.72810	469.72299	923.90967	-206.16789	553.23895	859.30396	-144.08330	508.45825	829.02600	-195.95090	599.49255	790.90869	-155.65585
12328	49.30800	387.17944	1414.89917	69.02868	428.58762	1360.42578	238.23553	456.77289	1365.11292	-122.03366	539.27240	1310.35400	63.34747	497.74203	1167.29260	289.27646	529.26685	1126.66455	298.22665	552.55975	1070.14111	202.94351	631.00128	1163.72241	257.55615	629.37238	1269.28357	275.51349	651.83777	1256.96082	204.72026	686.49420	1305.67688	300.23520	463.44510	1151.57117	-182.64705	474.43149	1070.02515	-195.88661	398.35706	1036.24487	-134.71085	469.87988	923.89325	-206.14255	553.44250	859.35297	-144.05583	508.67999	829.03723	-195.91194	599.71246	790.99359	-155.64096
12329	49.31200	387.09201	1414.86340	69.00262	428.56198	1360.43372	238.09763	456.68881	1365.10156	-122.07266	539.23669	1310.39600	63.30064	498.03470	1167.40820	289.19852	529.54016	1126.80444	298.11923	552.94965	1070.36865	202.81932	631.16382	1164.19983	257.42102	629.07837	1269.77576	275.31250	651.77209	1257.42419	204.58260	686.12732	1306.46912	300.11798	463.40228	1151.58875	-182.67537	474.31635	1070.18201	-196.21516	398.45425	1036.20679	-134.68964	470.02783	923.87378	-206.11896	553.64020	859.40106	-144.03290	508.89755	829.05341	-195.86133	599.94147	791.05762	-155.62006
12330	49.31600	387.00449	1414.82971	68.96987	428.50821	1360.36365	238.05432	456.60132	1365.09412	-122.11420	539.20593	1310.44202	63.25325	498.31247	1167.53943	289.12503	529.80212	1126.95276	298.02866	553.35541	1070.61963	202.68929	631.34003	1164.66711	257.27328	628.81116	1270.26562	275.11295	651.71082	1257.89307	204.43370	685.72784	1307.20740	299.99722	463.35428	1151.61121	-182.70540	474.43378	1070.12048	-196.12878	398.56052	1036.16150	-134.68462	470.17444	923.86053	-206.09909	553.83441	859.45093	-144.02020	509.10968	829.05835	-195.81583	600.18011	791.13184	-155.59734
12331	49.32000	386.91910	1414.78967	68.94418	428.40808	1360.20581	238.16899	456.50836	1365.09143	-122.16268	539.17316	1310.49182	63.20771	498.56888	1167.68164	289.05630	530.06641	1127.10986	297.95309	553.75104	1070.85303	202.54521	631.46454	1165.08789	257.11090	628.53528	1270.75244	274.91849	651.64252	1258.36646	204.29036	685.30524	1307.90015	299.86636	463.31085	1151.62683	-182.73639	474.71271	1069.90796	-195.74590	398.66144	1036.12109	-134.68340	470.31851	923.84412	-206.08830	554.02466	859.50439	-144.00601	509.31992	829.07001	-195.77992	600.41632	791.20660	-155.57803
12332	49.32400	386.82748	1414.75037	68.91900	428.32001	1360.17773	238.13043	456.41205	1365.08167	-122.19579	539.13501	1310.54297	63.15726	498.81299	1167.83398	288.99661	530.32635	1127.26843	297.88971	554.10187	1071.09033	202.40260	631.59369	1165.51343	256.94901	628.24908	1271.22620	274.73621	651.56458	1258.83435	204.13858	684.88483	1308.60999	299.74329	463.26462	1151.63513	-182.76436	474.72028	1069.94275	-195.84543	398.75592	1036.07751	-134.68225	470.46246	923.82825	-206.06885	554.20673	859.55615	-143.98869	509.52219	829.08594	-195.76219	600.63269	791.28839	-155.56189
12333	49.32800	386.73788	1414.71448	68.89520	428.23227	1360.18115	238.06038	456.31091	1365.07751	-122.23129	539.09760	1310.58765	63.11338	499.04706	1167.99023	288.94376	530.57434	1127.43909	297.81430	554.40436	1071.30811	202.30602	631.71918	1165.95520	256.79123	627.95563	1271.70264	274.56268	651.47656	1259.30566	203.98364	684.46893	1309.31946	299.64597	463.21924	1151.64160	-182.79034	474.55692	1070.14111	-196.25171	399.31076	1036.03528	-134.67818	470.59875	923.81622	-206.05437	554.38647	859.61066	-143.96989	509.71204	829.09619	-195.73924	600.85022	791.36169	-155.53802
12334	49.33200	386.64688	1414.67542	68.86922	428.13788	1360.19885	237.98396	456.20801	1365.07129	-122.27579	539.05731	1310.64172	63.07030	499.26843	1168.15027	288.90015	530.81000	1127.63525	297.75806	554.68878	1071.49890	202.23167	631.84137	1166.40857	256.66330	627.65497	1272.18298	274.39203	651.38324	1259.77698	203.83322	684.04492	1309.99512	299.53622	463.17972	1151.64905	-182.82050	474.55554	1070.18372	-196.36453	400.43689	1036.00537	-134.68364	470.71790	923.80945	-206.04491	554.56061	859.66077	-143.95483	509.89688	829.11108	-195.71538	601.06451	791.44861	-155.51619
